<?xml version="1.0" encoding="UTF-8"?>
<svg width="16px" height="16px" viewBox="0 0 16 16" version="1.1" xmlns="http://www.w3.org/2000/svg" xmlns:xlink="http://www.w3.org/1999/xlink">
    <title>Edit</title>
    <defs>
        <path d="M15.1380233,0.861 C14.5840383,0.3055 13.8450583,0 13.0605795,0 C12.2761008,0 11.5381207,0.305 10.9836357,0.86 L2.14737482,9.6455 C2.09487624,9.6975 2.05487732,9.76 2.029878,9.829 L0.0299321116,15.329 C-0.0345661433,15.5065 0.00693273387,15.707 0.137429203,15.8445 C0.233426605,15.9455 0.364923048,16 0.500419381,16 C0.549418056,16 0.59841673,15.993 0.646915417,15.978 L5.62128082,14.452 C5.69927871,14.4285 5.77027679,14.3855 5.82827522,14.328 L15.1385233,5.0175 C15.6945083,4.463 16,3.724 16,2.939 C15.9995,2.1545 15.6945083,1.416 15.1380233,0.861 Z M5.04629638,13.5825 L3.18434676,14.1545 C3.0758497,13.836 2.90685427,13.554 2.67636051,13.3235 C2.47586593,13.124 2.24337222,12.969 1.99837885,12.843 L2.8503558,10.5 L4.00032468,10.5 L4.00032468,11.5 C4.00032468,11.7765 4.22381864,12 4.50031115,12 L5.38278728,12 L5.04629638,13.5825 Z M12.4060972,6.3355 L6.31426207,12.4275 L6.48925734,11.604 C6.5202565,11.456 6.4832575,11.3025 6.38826007,11.1855 C6.29326264,11.068 6.1507665,11 6.00027057,11 L5.00029763,11 L5.00029763,10 C5.00029763,9.724 4.77630369,9.5 4.50031115,9.5 L3.7113325,9.5 L9.65767161,3.5875 L9.66367145,3.593 C10.0296615,3.2265 10.5171484,3.025 11.0346344,3.025 C11.5521203,3.025 12.0401071,3.2265 12.4055973,3.593 C12.7710874,3.9595 12.9745819,4.4465 12.9745819,4.9645 C12.9745819,5.4825 12.7730873,5.969 12.4060972,6.3355 Z M14.4310425,4.3105 L13.9650551,4.777 C13.9200563,4.0625 13.6235643,3.3965 13.1135781,2.886 C12.6030919,2.375 11.9366099,2.079 11.2201293,2.0345 L11.6891166,1.569 L11.6901166,1.568 C12.0551067,1.2015 12.5425935,1 13.0605795,1 C13.5785655,1 14.0655523,1.2015 14.4310425,1.568 C14.7980325,1.9345 15.0000271,2.4215 15.0000271,2.939 C15.0000271,3.4575 14.7990325,3.9445 14.4310425,4.3105 Z M11.1466313,4.1465 L6.1467666,9.1465 C5.95127189,9.342 5.95127189,9.658 6.1467666,9.8535 C6.24376398,9.951 6.3722605,10 6.50025704,10 C6.62825358,10 6.75575013,9.951 6.85374748,9.8535 L11.8536122,4.8535 C12.0491069,4.658 12.0491069,4.342 11.8536122,4.1465 C11.6576175,3.951 11.342126,3.951 11.1466313,4.1465 Z" id="path-1"></path>
    </defs>
    <g id="Locations" stroke="none" stroke-width="1" fill="none" fill-rule="evenodd">
        <g id="Assets" transform="translate(-28.000000, -27.000000)">
            <g id="Edit" transform="translate(28.000000, 27.000000)">
                <mask id="mask-2" fill="white">
                    <use xlink:href="#path-1"></use>
                </mask>
                <use id="Shape" fill="#FFFFFF" xlink:href="#path-1"></use>
                <g id="Group" mask="url(#mask-2)" fill="#001122">
                    <g id="🎨-Color">
                        <rect id="Rectangle-2" x="0" y="0" width="16" height="16"></rect>
                    </g>
                </g>
            </g>
        </g>
    </g>
</svg>