<?xml version="1.0" encoding="UTF-8"?>
<svg width="16px" height="16px" viewBox="0 0 16 16" version="1.1" xmlns="http://www.w3.org/2000/svg" xmlns:xlink="http://www.w3.org/1999/xlink">
    <title>Close</title>
    <defs>
        <path d="M3.6271561,13.6566703 C3.27269398,14.0114198 2.6976545,14.0114463 2.34332824,13.6568328 C2.17209393,13.4855985 2.0772798,13.2556202 2.0772798,13.014897 C2.0772798,12.7741907 2.17207812,12.5442041 2.34327424,12.3730153 L6.71638675,8.0000912 L2.3432776,3.62693861 C2.17207888,3.45574726 2.0772798,3.2257609 2.0772798,2.98505358 C2.0772798,2.74449045 2.1719721,2.51452001 2.34303171,2.34317531 C2.69741643,1.98850338 3.27245591,1.98853168 3.62676165,2.34312475 L7.99994028,6.71634684 L12.3729634,2.34328028 C12.7274256,1.98853079 13.302465,1.98850428 13.6567945,2.34312101 C14.0114829,2.69780936 14.0115187,3.27227715 13.6568522,3.62692831 L9.28373278,8.0000912 L13.6568453,12.3730153 C14.0115046,12.7276593 14.0114969,13.3021271 13.656957,13.656667 C13.3024924,14.0114189 12.7274529,14.0114472 12.3731258,13.6568328 L7.99994385,9.28383913 L3.6271561,13.6566703 Z" id="path-1"></path>
    </defs>
    <g id="Locations" stroke="none" stroke-width="1" fill="none" fill-rule="evenodd">
        <g id="Assets" transform="translate(-28.000000, -163.000000)">
            <g id="Group" transform="translate(28.000000, 27.000000)">
                <g transform="translate(0.000000, 136.000000)" id="Close">
                    <mask id="mask-2" fill="white">
                        <use xlink:href="#path-1"></use>
                    </mask>
                    <use id="Mask" fill="#FFFFFF" xlink:href="#path-1"></use>
                    <g id="Group" mask="url(#mask-2)" fill="#001122">
                        <g id="🎨-Color">
                            <rect id="colors/theme/orange" x="0" y="0" width="16" height="16"></rect>
                        </g>
                    </g>
                </g>
            </g>
        </g>
    </g>
</svg>